<?xml version="1.0" encoding="utf-8"?>
<!-- Generator: Adobe Illustrator 19.0.0, SVG Export Plug-In . SVG Version: 6.00 Build 0)  -->
<svg version="1.1" id="Business_and_Office_2" xmlns="http://www.w3.org/2000/svg" xmlns:xlink="http://www.w3.org/1999/xlink"
	 x="0px" y="0px" viewBox="0 0 20 20" style="enable-background:new 0 0 20 20;" xml:space="preserve">
<g>
	<path d="M20,7c0-0.8-0.3-1.6-0.9-2.1c-0.8-0.8-2.1-1-3.1-0.7V0H0v20h16v-7.8l3.1-3.1C19.7,8.6,20,7.8,20,7z M17.7,6.3
		C17.9,6.5,18,6.7,18,7s-0.1,0.5-0.3,0.7L17.4,8L16,6.6l0.3-0.3C16.7,5.9,17.3,5.9,17.7,6.3z M11,11.6L14.5,8L16,9.5L12.4,13H11
		V11.6z M14,18H2V2h12v3.8L11.8,8H4v2h5.8L9,10.8V12H4v2h5v1h4.2l0.8-0.8V18z"/>
	<rect x="4" y="4" width="8" height="2"/>
</g>
</svg>
