<?xml version="1.0" encoding="utf-8"?>
<!-- Generator: Adobe Illustrator 19.0.0, SVG Export Plug-In . SVG Version: 6.00 Build 0)  -->
<svg version="1.1" id="Market_and_Economics" xmlns="http://www.w3.org/2000/svg" xmlns:xlink="http://www.w3.org/1999/xlink"
	 x="0px" y="0px" viewBox="0 0 20 20" style="enable-background:new 0 0 20 20;" xml:space="preserve">
<path d="M10,0C4.5,0,0,4.5,0,10c0,5.5,4.5,10,10,10c5.5,0,10-4.5,10-10C20,4.5,15.5,0,10,0z M17.9,9h-2c-0.2-0.9-0.5-1.8-1-2.5
	l1.4-1.4C17.2,6.2,17.7,7.5,17.9,9z M6,10c0-2.2,1.8-4,4-4c2.2,0,4,1.8,4,4c0,2.2-1.8,4-4,4C7.8,14,6,12.2,6,10z M10,2
	c1.8,0,3.5,0.6,4.9,1.7l-1.4,1.4C12.5,4.4,11.3,4,10,4c-3.3,0-6,2.7-6,6c0,1.3,0.4,2.5,1.1,3.5l-1.4,1.4C2.6,13.5,2,11.8,2,10
	C2,5.6,5.6,2,10,2z M10,18c-1.8,0-3.5-0.6-4.9-1.7l1.4-1.4c1,0.7,2.2,1.1,3.5,1.1c3,0,5.4-2.2,5.9-5h2C17.4,14.9,14.1,18,10,18z"/>
</svg>
