<?xml version="1.0" encoding="utf-8"?>
<!-- Generator: Adobe Illustrator 19.0.0, SVG Export Plug-In . SVG Version: 6.00 Build 0)  -->
<svg version="1.1" id="Shipping_and_Delivery" xmlns="http://www.w3.org/2000/svg" xmlns:xlink="http://www.w3.org/1999/xlink"
	 x="0px" y="0px" viewBox="0 0 20 20" style="enable-background:new 0 0 20 20;" xml:space="preserve">
<g>
	<rect x="0" y="14" width="20" height="2"/>
	<rect x="0" y="18" width="20" height="2"/>
	<path d="M10,2.5C8.4,2.5,7,4.1,7,6s1.3,3.5,3,3.5s3-1.6,3-3.5S11.7,2.5,10,2.5z M10,7.5C9.5,7.5,9,6.8,9,6c0-0.8,0.5-1.5,1-1.5
		s1,0.7,1,1.5C11,6.8,10.6,7.5,10,7.5z"/>
	<path d="M20,0H0h0v12h0h20h0L20,0L20,0z M18,2v1.2C17.3,3,16.7,2.6,16.3,2H18z M2,2h1.7C3.4,2.6,2.8,3,2,3.2V2z M2,10V8.8
		C2.8,9,3.4,9.4,3.7,10H2z M18,10h-1.7c0.3-0.6,1-1,1.7-1.2V10z M18,6.8c-1.9,0.3-3.4,1.6-3.9,3.2H5.9C5.4,8.4,3.9,7.1,2,6.8V5.2
		C3.9,4.9,5.4,3.6,5.9,2h8.3c0.4,1.6,2,2.9,3.9,3.2V6.8z"/>
</g>
</svg>
