<?xml version="1.0" encoding="utf-8"?>
<!-- Generator: Adobe Illustrator 19.0.0, SVG Export Plug-In . SVG Version: 6.00 Build 0)  -->
<svg version="1.1" id="Shipping_and_Delivery" xmlns="http://www.w3.org/2000/svg" xmlns:xlink="http://www.w3.org/1999/xlink"
	 x="0px" y="0px" viewBox="0 0 16 20" style="enable-background:new 0 0 16 20;" xml:space="preserve">
<g>
	<rect x="4" y="10" width="8" height="2"/>
	<rect x="4" y="14" width="8" height="2"/>
	<path d="M11.9,3c-0.4-1.7-2-3-3.9-3C6.2,0,4.6,1.3,4.2,3H0v17h16V3H11.9z M8,2c1.1,0,2,0.9,2,2c0,1.1-0.9,2-2,2C6.9,6,6,5.1,6,4
		C6,2.9,6.9,2,8,2z M14,18H2V5h2.1c0,0,0,0,0,0c0.5,1.7,2,3,3.9,3c1.9,0,3.4-1.3,3.9-3c0,0,0,0,0,0H14V18z"/>
</g>
</svg>
