<?xml version="1.0" encoding="utf-8"?>
<!-- Generator: Adobe Illustrator 19.0.0, SVG Export Plug-In . SVG Version: 6.00 Build 0)  -->
<svg version="1.1" id="Business_and_Office_2" xmlns="http://www.w3.org/2000/svg" xmlns:xlink="http://www.w3.org/1999/xlink"
	 x="0px" y="0px" viewBox="0 0 20 20" style="enable-background:new 0 0 20 20;" xml:space="preserve">
<g>
	<g>
		<path d="M17.9,9c-0.2-1.5-0.8-2.8-1.6-3.9l1.5-1.5l-1.4-1.4l-1.5,1.5c-1.1-0.9-2.4-1.4-3.9-1.6V0H9v2.1C7.5,2.2,6.2,2.8,5.1,3.7
			L3.6,2.2L2.2,3.6l1.5,1.5C2.8,6.2,2.2,7.5,2.1,9H0v2h2.1c0.2,1.5,0.8,2.8,1.6,3.9l-1.5,1.5l1.4,1.4l1.5-1.5
			c1.1,0.9,2.4,1.4,3.9,1.6V20h2v-2.1c1.5-0.2,2.8-0.8,3.9-1.6l1.5,1.5l1.4-1.4l-1.5-1.5c0.9-1.1,1.4-2.4,1.6-3.9H20V9H17.9z M10,14
			c-2.2,0-4-1.8-4-4s1.8-4,4-4c2.2,0,4,1.8,4,4S12.2,14,10,14z"/>
	</g>
</g>
</svg>
