<svg xmlns="http://www.w3.org/2000/svg" xmlns:xlink="http://www.w3.org/1999/xlink" preserveAspectRatio="xMidYMid" width="16" height="4" viewBox="0 0 16 4">
  <path d="M15.847,2.790 C15.745,3.035 15.602,3.248 15.421,3.427 C15.239,3.606 15.027,3.747 14.784,3.848 C14.542,3.949 14.280,4.000 14.000,4.000 C13.712,4.000 13.447,3.949 13.205,3.848 C12.962,3.747 12.752,3.606 12.574,3.427 C12.396,3.248 12.256,3.035 12.154,2.790 C12.051,2.544 12.000,2.281 12.000,2.000 C12.000,1.719 12.051,1.458 12.154,1.216 C12.256,0.975 12.396,0.764 12.574,0.585 C12.752,0.406 12.962,0.263 13.205,0.158 C13.447,0.053 13.712,0.000 14.000,0.000 C14.280,0.000 14.542,0.053 14.784,0.158 C15.027,0.263 15.239,0.406 15.421,0.585 C15.602,0.764 15.745,0.975 15.847,1.216 C15.949,1.458 16.000,1.719 16.000,2.000 C16.000,2.281 15.949,2.544 15.847,2.790 ZM9.421,3.427 C9.239,3.606 9.027,3.747 8.784,3.848 C8.542,3.949 8.280,4.000 8.000,4.000 C7.712,4.000 7.447,3.949 7.205,3.848 C6.962,3.747 6.752,3.606 6.574,3.427 C6.396,3.248 6.256,3.035 6.154,2.790 C6.051,2.544 6.000,2.281 6.000,2.000 C6.000,1.719 6.051,1.458 6.154,1.216 C6.256,0.975 6.396,0.764 6.574,0.585 C6.752,0.406 6.962,0.263 7.205,0.158 C7.447,0.053 7.712,0.000 8.000,0.000 C8.280,0.000 8.542,0.053 8.784,0.158 C9.027,0.263 9.239,0.406 9.421,0.585 C9.602,0.764 9.744,0.975 9.847,1.216 C9.949,1.458 10.000,1.719 10.000,2.000 C10.000,2.281 9.949,2.544 9.847,2.790 C9.744,3.035 9.602,3.248 9.421,3.427 ZM3.421,3.427 C3.239,3.606 3.027,3.747 2.784,3.848 C2.542,3.949 2.280,4.000 2.000,4.000 C1.712,4.000 1.447,3.949 1.205,3.848 C0.962,3.747 0.752,3.606 0.574,3.427 C0.396,3.248 0.256,3.035 0.153,2.790 C0.051,2.544 0.000,2.281 0.000,2.000 C0.000,1.719 0.051,1.458 0.153,1.216 C0.256,0.975 0.396,0.764 0.574,0.585 C0.752,0.406 0.962,0.263 1.205,0.158 C1.447,0.053 1.712,0.000 2.000,0.000 C2.280,0.000 2.542,0.053 2.784,0.158 C3.027,0.263 3.239,0.406 3.421,0.585 C3.602,0.764 3.744,0.975 3.847,1.216 C3.949,1.458 4.000,1.719 4.000,2.000 C4.000,2.281 3.949,2.544 3.847,2.790 C3.744,3.035 3.602,3.248 3.421,3.427 Z"/>
</svg>
