<?xml version="1.0" encoding="utf-8"?>
<!-- Generator: Adobe Illustrator 19.0.0, SVG Export Plug-In . SVG Version: 6.00 Build 0)  -->
<svg version="1.1" id="Business" xmlns="http://www.w3.org/2000/svg" xmlns:xlink="http://www.w3.org/1999/xlink" x="0px" y="0px"
	 viewBox="0 0 60 60" style="enable-background:new 0 0 60 60;" xml:space="preserve">
<style type="text/css">
	.st0{fill:none;stroke:#000000;stroke-width:2;stroke-miterlimit:10;}
	.st1{fill:none;stroke:#000000;stroke-width:2;stroke-linecap:round;stroke-miterlimit:10;}
</style>
<path class="st0" d="M55,50l-4,7l-4-7V3c0-1.1,0.9-2,2-2h4c1.1,0,2,0.9,2,2V50z"/>
<rect x="47" y="8" class="st0" width="8" height="4"/>
<line class="st0" x1="47" y1="50" x2="55" y2="50"/>
<line class="st1" x1="51" y1="57" x2="51" y2="59"/>
<g>
	<rect x="1" y="16" class="st0" width="46" height="31"/>
	<rect x="55" y="16" class="st0" width="4" height="31"/>
</g>
<line class="st1" x1="36" y1="27" x2="39" y2="27"/>
<line class="st1" x1="21" y1="23" x2="24" y2="23"/>
<line class="st1" x1="32" y1="23" x2="39" y2="23"/>
<line class="st1" x1="28" y1="23" x2="28" y2="23"/>
<line class="st1" x1="25" y1="27" x2="32" y2="27"/>
<line class="st1" x1="21" y1="27" x2="21" y2="27"/>
<path class="st1" d="M6,34.2c0,2.2,1.8,4,4,4c1.2,0,2.3-0.6,3.1-1.4c0.9-1.1,0.7-2.8-0.4-3.7l-5.2-4.1c-1.1-0.9-1.4-2.6-0.4-3.7
	C7.7,24.6,8.8,24,10,24c2.2,0,4,1.8,4,4"/>
<polyline class="st1" points="10,22 10,35 10,40 "/>
<g>
	<g>
		<path d="M24.1,33.4c-2.8,1.5-3.2,4.7-3.3,7.6c0.6-0.2,1.1-0.5,1.7-0.7c-0.9-0.8-1.9-1.6-2.8-2.4c-1-0.8-2.4,0.6-1.4,1.4
			c0.9,0.8,1.9,1.6,2.8,2.4c0.7,0.6,1.7,0.2,1.7-0.7c0.1-2.2,0.2-4.7,2.3-5.9C26.3,34.5,25.3,32.8,24.1,33.4L24.1,33.4z"/>
	</g>
</g>
<g>
	<g>
		<path d="M25.1,38.5c0.5,1,1.5,1.8,2.7,1.9c0.6,0.1,1.1,0,1.7-0.2c0.4-0.2,1.9-1.3,2.3-0.7c0.6,1.1,2.4,0.1,1.7-1
			c-0.5-1-1.6-1.3-2.7-1.1c-1.4,0.3-3,2.1-3.9,0.1C26.3,36.3,24.6,37.4,25.1,38.5L25.1,38.5z"/>
	</g>
</g>
</svg>
