<?xml version="1.0" encoding="utf-8"?>
<!-- Generator: Adobe Illustrator 19.0.0, SVG Export Plug-In . SVG Version: 6.00 Build 0)  -->
<svg version="1.1" id="Layer_1" xmlns="http://www.w3.org/2000/svg" xmlns:xlink="http://www.w3.org/1999/xlink" x="0px" y="0px"
	 viewBox="0 0 20 20.1" style="enable-background:new 0 0 20 20.1;" xml:space="preserve">
<path d="M20,3.9L15.4,0l-1.3,1.5l4.6,3.9L20,3.9z M5.9,1.5L4.6,0L0,3.9l1.3,1.5L5.9,1.5z M10,2.1c-5,0-9,4-9,9s4,9,9,9c5,0,9-4,9-9
	S15,2.1,10,2.1z M10,18.1c-3.9,0-7-3.1-7-7s3.1-7,7-7s7,3.1,7,7S13.9,18.1,10,18.1z M8.5,12.7l-2.1-2.1l-1.1,1.1l3.2,3.2l6-6
	l-1.1-1.1L8.5,12.7z"/>
</svg>
