<?xml version="1.0" encoding="utf-8"?>
<!-- Generator: Adobe Illustrator 19.0.0, SVG Export Plug-In . SVG Version: 6.00 Build 0)  -->
<svg version="1.1" id="Market_and_Economics" xmlns="http://www.w3.org/2000/svg" xmlns:xlink="http://www.w3.org/1999/xlink"
	 x="0px" y="0px" viewBox="0 0 18 20" style="enable-background:new 0 0 18 20;" xml:space="preserve">
<g>
	<path d="M18,6.5c0-1.4-1.2-2.6-3-3.1V2c0-1.1-0.9-2-2-2H2C0.9,0,0,0.9,0,2v16c0,1.1,0.9,2,2,2h11c1.1,0,2-0.9,2-2V9.6
		C16.7,9,18,8,18,6.5z M2,18v-2h11v2H2z M13,14H2V2h11v1c-0.2,0-0.3,0-0.5,0C9.4,3,7,4.5,7,6.5c0,0.7,0.4,1.5,1,2V12l4.5-2
		c0.2,0,0.3,0,0.5,0V14z M12.3,8h-0.2L10,8.9V7.5L9.6,7.2C9.2,7,9,6.7,9,6.5C9,5.9,10.4,5,12.5,5S16,5.9,16,6.5C16,7,14.6,8,12.3,8z
		"/>
</g>
</svg>
