<?xml version="1.0" encoding="utf-8"?>
<!-- Generator: Adobe Illustrator 19.0.0, SVG Export Plug-In . SVG Version: 6.00 Build 0)  -->
<svg version="1.1" id="Business_and_Office_2" xmlns="http://www.w3.org/2000/svg" xmlns:xlink="http://www.w3.org/1999/xlink"
	 x="0px" y="0px" viewBox="0 0 20 16" style="enable-background:new 0 0 20 16;" xml:space="preserve">
<g>
	<path d="M6,6c1.7,0,3-1.3,3-3S7.7,0,6,0S3,1.3,3,3S4.3,6,6,6z M6,2c0.6,0,1,0.4,1,1S6.6,4,6,4C5.4,4,5,3.6,5,3S5.4,2,6,2z"/>
	<path d="M15,9c-1.4,0-2.6,0.6-3.6,1.5C10.5,8.4,8.4,7,6,7c-3.3,0-6,2.7-6,6v3h20v-2C20,11.2,17.8,9,15,9z M2,14v-1c0-2.2,1.8-4,4-4
		c2.2,0,4,1.8,4,4v1H2z M12,14c0-1.7,1.3-3,3-3c1.7,0,3,1.3,3,3H12z"/>
	<path d="M15,8c1.7,0,3-1.3,3-3s-1.3-3-3-3c-1.7,0-3,1.3-3,3S13.3,8,15,8z M15,4c0.6,0,1,0.4,1,1s-0.4,1-1,1c-0.6,0-1-0.4-1-1
		S14.4,4,15,4z"/>
</g>
</svg>
