<?xml version="1.0" encoding="utf-8"?>
<!-- Generator: Adobe Illustrator 19.0.0, SVG Export Plug-In . SVG Version: 6.00 Build 0)  -->
<svg version="1.1" id="Market_and_Economics" xmlns="http://www.w3.org/2000/svg" xmlns:xlink="http://www.w3.org/1999/xlink"
	 x="0px" y="0px" viewBox="0 0 20 20" style="enable-background:new 0 0 20 20;" xml:space="preserve">
<g>
	<path d="M20,8C20,8,20,8,20,8c0-0.3-0.1-0.6-0.4-0.8L16,4.4V1c0-0.6-0.4-1-1-1H5C4.4,0,4,0.4,4,1v3.4L0.4,7.2C0.1,7.4,0,7.7,0,8
		c0,0,0,0,0,0v11c0,0.6,0.4,1,1,1h18c0.6,0,1-0.4,1-1L20,8L20,8z M16,6.9L17.4,8L16,9.1V6.9z M6,2h8v8.6l-2.7,2.1l0,0l-1.3,1l-1.3-1
		l0,0L6,10.6V2z M4,6.9v2.1L2.6,8L4,6.9z M2,10l4.4,3.5L2,17V10z M3.9,18l4.2-3.2l1.3,1c0.4,0.3,0.9,0.3,1.2,0l1.3-1l4.2,3.2H3.9z
		 M18,17l-4.4-3.5L18,10V17z"/>
	<rect x="8" y="4" width="4" height="2"/>
	<rect x="8" y="8" width="4" height="2"/>
</g>
</svg>
